<svg width="223" height="40" viewBox="0 0 223 40" fill="none" xmlns="http://www.w3.org/2000/svg">
<path d="M28 7V28C24.0625 29.4375 22.875 30 20.5625 30C16.625 30 15.125 28 11.1875 28C9.9375 28 8.9375 28.25 8 28.5V24.5C8.9375 24.25 9.9375 24 11.1875 24C15.125 24 16.625 26 20.5625 26C21.8125 26 22.75 25.8125 24 25.4375V12.4375C22.75 12.8125 21.8125 13 20.5625 13C16.625 13 15.125 11 11.1875 11C8 11 6.5 12.3125 4 12.8125V32C4 33.125 3.125 34 2 34C0.875 34 0 33.125 0 32V8C0 6.875 0.875 6 2 6C3.125 6 4 6.875 4 8V8.8125C6.5 8.3125 8 7 11.1875 7C15.125 7 16.625 9 20.5625 9C22.875 9 24.0625 8.4375 28 7Z" fill="#183153"/>
<path d="M49.976 25.024H43.688L42.68 28H38.384L44.48 11.152H49.232L55.328 28H50.984L49.976 25.024ZM48.92 21.856L46.832 15.688L44.768 21.856H48.92ZM76.4073 14.608L72.7833 28H68.2473L66.1353 19.312L63.9513 28H59.4393L55.7913 14.608H59.8953L61.7913 24.184L64.0473 14.608H68.3913L70.6713 24.136L72.5433 14.608H76.4073ZM90.5964 21.088C90.5964 21.472 90.5724 21.872 90.5244 22.288H81.2364C81.3004 23.12 81.5644 23.76 82.0284 24.208C82.5084 24.64 83.0924 24.856 83.7804 24.856C84.8044 24.856 85.5164 24.424 85.9164 23.56H90.2844C90.0604 24.44 89.6524 25.232 89.0604 25.936C88.4844 26.64 87.7564 27.192 86.8764 27.592C85.9964 27.992 85.0124 28.192 83.9244 28.192C82.6124 28.192 81.4444 27.912 80.4204 27.352C79.3964 26.792 78.5964 25.992 78.0204 24.952C77.4444 23.912 77.1564 22.696 77.1564 21.304C77.1564 19.912 77.4364 18.696 77.9964 17.656C78.5724 16.616 79.3724 15.816 80.3964 15.256C81.4204 14.696 82.5964 14.416 83.9244 14.416C85.2204 14.416 86.3724 14.688 87.3804 15.232C88.3884 15.776 89.1724 16.552 89.7324 17.56C90.3084 18.568 90.5964 19.744 90.5964 21.088ZM86.3964 20.008C86.3964 19.304 86.1564 18.744 85.6764 18.328C85.1964 17.912 84.5964 17.704 83.8764 17.704C83.1884 17.704 82.6044 17.904 82.1244 18.304C81.6604 18.704 81.3724 19.272 81.2604 20.008H86.3964ZM98.2094 28.192C97.0414 28.192 96.0014 27.992 95.0894 27.592C94.1774 27.192 93.4574 26.648 92.9294 25.96C92.4014 25.256 92.1054 24.472 92.0414 23.608H96.0974C96.1454 24.072 96.3614 24.448 96.7454 24.736C97.1294 25.024 97.6014 25.168 98.1614 25.168C98.6734 25.168 99.0654 25.072 99.3374 24.88C99.6254 24.672 99.7694 24.408 99.7694 24.088C99.7694 23.704 99.5694 23.424 99.1694 23.248C98.7694 23.056 98.1214 22.848 97.2254 22.624C96.2654 22.4 95.4654 22.168 94.8254 21.928C94.1854 21.672 93.6334 21.28 93.1694 20.752C92.7054 20.208 92.4734 19.48 92.4734 18.568C92.4734 17.8 92.6814 17.104 93.0974 16.48C93.5294 15.84 94.1534 15.336 94.9694 14.968C95.8014 14.6 96.7854 14.416 97.9214 14.416C99.6014 14.416 100.921 14.832 101.881 15.664C102.857 16.496 103.417 17.6 103.561 18.976H99.7694C99.7054 18.512 99.4974 18.144 99.1454 17.872C98.8094 17.6 98.3614 17.464 97.8014 17.464C97.3214 17.464 96.9534 17.56 96.6974 17.752C96.4414 17.928 96.3134 18.176 96.3134 18.496C96.3134 18.88 96.5134 19.168 96.9134 19.36C97.3294 19.552 97.9694 19.744 98.8334 19.936C99.8254 20.192 100.633 20.448 101.257 20.704C101.881 20.944 102.425 21.344 102.889 21.904C103.369 22.448 103.617 23.184 103.633 24.112C103.633 24.896 103.409 25.6 102.961 26.224C102.529 26.832 101.897 27.312 101.065 27.664C100.249 28.016 99.2974 28.192 98.2094 28.192ZM112.24 28.192C110.928 28.192 109.744 27.912 108.688 27.352C107.648 26.792 106.824 25.992 106.216 24.952C105.624 23.912 105.328 22.696 105.328 21.304C105.328 19.928 105.632 18.72 106.24 17.68C106.848 16.624 107.68 15.816 108.736 15.256C109.792 14.696 110.976 14.416 112.288 14.416C113.6 14.416 114.784 14.696 115.84 15.256C116.896 15.816 117.728 16.624 118.336 17.68C118.944 18.72 119.248 19.928 119.248 21.304C119.248 22.68 118.936 23.896 118.312 24.952C117.704 25.992 116.864 26.792 115.792 27.352C114.736 27.912 113.552 28.192 112.24 28.192ZM112.24 24.64C113.024 24.64 113.688 24.352 114.232 23.776C114.792 23.2 115.072 22.376 115.072 21.304C115.072 20.232 114.8 19.408 114.256 18.832C113.728 18.256 113.072 17.968 112.288 17.968C111.488 17.968 110.824 18.256 110.296 18.832C109.768 19.392 109.504 20.216 109.504 21.304C109.504 22.376 109.76 23.2 110.272 23.776C110.8 24.352 111.456 24.64 112.24 24.64ZM140.506 11.152V28H136.402V17.896L132.634 28H129.322L125.53 17.872V28H121.426V11.152H126.273L131.002 22.816L135.682 11.152H140.506ZM156.081 21.088C156.081 21.472 156.057 21.872 156.009 22.288H146.721C146.785 23.12 147.049 23.76 147.513 24.208C147.993 24.64 148.577 24.856 149.265 24.856C150.289 24.856 151.001 24.424 151.401 23.56H155.769C155.545 24.44 155.137 25.232 154.545 25.936C153.969 26.64 153.241 27.192 152.361 27.592C151.481 27.992 150.497 28.192 149.409 28.192C148.097 28.192 146.929 27.912 145.905 27.352C144.881 26.792 144.081 25.992 143.505 24.952C142.929 23.912 142.641 22.696 142.641 21.304C142.641 19.912 142.921 18.696 143.481 17.656C144.057 16.616 144.857 15.816 145.881 15.256C146.905 14.696 148.081 14.416 149.409 14.416C150.705 14.416 151.857 14.688 152.865 15.232C153.873 15.776 154.657 16.552 155.217 17.56C155.793 18.568 156.081 19.744 156.081 21.088ZM151.881 20.008C151.881 19.304 151.641 18.744 151.161 18.328C150.681 17.912 150.081 17.704 149.361 17.704C148.673 17.704 148.089 17.904 147.609 18.304C147.145 18.704 146.857 19.272 146.745 20.008H151.881ZM175.334 14.464C176.998 14.464 178.318 14.968 179.294 15.976C180.286 16.984 180.782 18.384 180.782 20.176V28H176.702V20.728C176.702 19.864 176.47 19.2 176.006 18.736C175.558 18.256 174.934 18.016 174.134 18.016C173.334 18.016 172.702 18.256 172.238 18.736C171.79 19.2 171.566 19.864 171.566 20.728V28H167.486V20.728C167.486 19.864 167.254 19.2 166.79 18.736C166.342 18.256 165.718 18.016 164.918 18.016C164.118 18.016 163.486 18.256 163.022 18.736C162.574 19.2 162.35 19.864 162.35 20.728V28H158.246V14.608H162.35V16.288C162.766 15.728 163.31 15.288 163.982 14.968C164.654 14.632 165.414 14.464 166.262 14.464C167.27 14.464 168.166 14.68 168.95 15.112C169.75 15.544 170.374 16.16 170.822 16.96C171.286 16.224 171.918 15.624 172.718 15.16C173.518 14.696 174.39 14.464 175.334 14.464ZM189.748 28.192C188.436 28.192 187.252 27.912 186.196 27.352C185.156 26.792 184.332 25.992 183.724 24.952C183.132 23.912 182.836 22.696 182.836 21.304C182.836 19.928 183.14 18.72 183.748 17.68C184.356 16.624 185.188 15.816 186.244 15.256C187.3 14.696 188.484 14.416 189.796 14.416C191.108 14.416 192.292 14.696 193.348 15.256C194.404 15.816 195.236 16.624 195.844 17.68C196.452 18.72 196.756 19.928 196.756 21.304C196.756 22.68 196.444 23.896 195.82 24.952C195.212 25.992 194.372 26.792 193.3 27.352C192.244 27.912 191.06 28.192 189.748 28.192ZM189.748 24.64C190.532 24.64 191.196 24.352 191.74 23.776C192.3 23.2 192.58 22.376 192.58 21.304C192.58 20.232 192.308 19.408 191.764 18.832C191.236 18.256 190.58 17.968 189.796 17.968C188.996 17.968 188.332 18.256 187.804 18.832C187.276 19.392 187.012 20.216 187.012 21.304C187.012 22.376 187.268 23.2 187.78 23.776C188.308 24.352 188.964 24.64 189.748 24.64ZM203.037 16.84C203.517 16.104 204.117 15.528 204.837 15.112C205.557 14.68 206.357 14.464 207.237 14.464V18.808H206.109C205.085 18.808 204.317 19.032 203.805 19.48C203.293 19.912 203.037 20.68 203.037 21.784V28H198.933V14.608H203.037V16.84ZM222.879 14.608L214.479 34.36H210.063L213.135 27.544L207.687 14.608H212.271L215.367 22.984L218.439 14.608H222.879Z" fill="#183153"/>
</svg>
