<svg width="297" height="52" viewBox="0 0 297 52" fill="none" xmlns="http://www.w3.org/2000/svg">
<path d="M40 7.42857V37.4286C34.375 39.4821 32.6786 40.2857 29.375 40.2857C23.75 40.2857 21.6071 37.4286 15.9821 37.4286C14.1964 37.4286 12.7679 37.7857 11.4286 38.1429V32.4286C12.7679 32.0714 14.1964 31.7143 15.9821 31.7143C21.6071 31.7143 23.75 34.5714 29.375 34.5714C31.1607 34.5714 32.5 34.3036 34.2857 33.7679V15.1964C32.5 15.7321 31.1607 16 29.375 16C23.75 16 21.6071 13.1429 15.9821 13.1429C11.4286 13.1429 9.28571 15.0179 5.71429 15.7321V43.1429C5.71429 44.75 4.46429 46 2.85714 46C1.25 46 0 44.75 0 43.1429V8.85714C0 7.25 1.25 6 2.85714 6C4.46429 6 5.71429 7.25 5.71429 8.85714V10.0179C9.28571 9.30357 11.4286 7.42857 15.9821 7.42857C21.6071 7.42857 23.75 10.2857 29.375 10.2857C32.6786 10.2857 34.375 9.48214 40 7.42857Z" fill="#183153"/>
<path d="M65.968 33.032H57.584L56.24 37H50.512L58.64 14.536H64.976L73.104 37H67.312L65.968 33.032ZM64.56 28.808L61.776 20.584L59.024 28.808H64.56ZM101.21 19.144L96.3778 37H90.3298L87.5138 25.416L84.6018 37H78.5858L73.7218 19.144H79.1938L81.7218 31.912L84.7298 19.144H90.5218L93.5618 31.848L96.0578 19.144H101.21ZM120.128 27.784C120.128 28.296 120.097 28.8293 120.033 29.384H107.649C107.734 30.4933 108.086 31.3467 108.705 31.944C109.345 32.52 110.123 32.808 111.041 32.808C112.406 32.808 113.355 32.232 113.889 31.08H119.713C119.414 32.2533 118.87 33.3093 118.081 34.248C117.313 35.1867 116.342 35.9227 115.169 36.456C113.995 36.9893 112.683 37.256 111.233 37.256C109.483 37.256 107.926 36.8827 106.561 36.136C105.195 35.3893 104.129 34.3227 103.361 32.936C102.593 31.5493 102.209 29.928 102.209 28.072C102.209 26.216 102.582 24.5947 103.329 23.208C104.097 21.8213 105.163 20.7547 106.529 20.008C107.894 19.2613 109.462 18.888 111.233 18.888C112.961 18.888 114.497 19.2507 115.841 19.976C117.185 20.7013 118.23 21.736 118.977 23.08C119.745 24.424 120.128 25.992 120.128 27.784ZM114.529 26.344C114.529 25.4053 114.209 24.6587 113.569 24.104C112.929 23.5493 112.129 23.272 111.169 23.272C110.251 23.272 109.473 23.5387 108.833 24.072C108.214 24.6053 107.83 25.3627 107.681 26.344H114.529ZM130.279 37.256C128.722 37.256 127.335 36.9893 126.119 36.456C124.903 35.9227 123.943 35.1973 123.239 34.28C122.535 33.3413 122.141 32.296 122.055 31.144H127.463C127.527 31.7627 127.815 32.264 128.327 32.648C128.839 33.032 129.469 33.224 130.215 33.224C130.898 33.224 131.421 33.096 131.783 32.84C132.167 32.5627 132.359 32.2107 132.359 31.784C132.359 31.272 132.093 30.8987 131.559 30.664C131.026 30.408 130.162 30.1307 128.967 29.832C127.687 29.5333 126.621 29.224 125.767 28.904C124.914 28.5627 124.178 28.04 123.559 27.336C122.941 26.6107 122.631 25.64 122.631 24.424C122.631 23.4 122.909 22.472 123.463 21.64C124.039 20.7867 124.871 20.1147 125.959 19.624C127.069 19.1333 128.381 18.888 129.895 18.888C132.135 18.888 133.895 19.4427 135.175 20.552C136.477 21.6613 137.223 23.1333 137.415 24.968H132.359C132.274 24.3493 131.997 23.8587 131.527 23.496C131.079 23.1333 130.482 22.952 129.735 22.952C129.095 22.952 128.605 23.08 128.263 23.336C127.922 23.5707 127.751 23.9013 127.751 24.328C127.751 24.84 128.018 25.224 128.551 25.48C129.106 25.736 129.959 25.992 131.111 26.248C132.434 26.5893 133.511 26.9307 134.343 27.272C135.175 27.592 135.901 28.1253 136.519 28.872C137.159 29.5973 137.49 30.5787 137.511 31.816C137.511 32.8613 137.213 33.8 136.615 34.632C136.039 35.4427 135.197 36.0827 134.087 36.552C132.999 37.0213 131.73 37.256 130.279 37.256ZM148.987 37.256C147.238 37.256 145.659 36.8827 144.251 36.136C142.864 35.3893 141.766 34.3227 140.955 32.936C140.166 31.5493 139.771 29.928 139.771 28.072C139.771 26.2373 140.176 24.6267 140.987 23.24C141.798 21.832 142.907 20.7547 144.315 20.008C145.723 19.2613 147.302 18.888 149.051 18.888C150.8 18.888 152.379 19.2613 153.787 20.008C155.195 20.7547 156.304 21.832 157.115 23.24C157.926 24.6267 158.331 26.2373 158.331 28.072C158.331 29.9067 157.915 31.528 157.083 32.936C156.272 34.3227 155.152 35.3893 153.723 36.136C152.315 36.8827 150.736 37.256 148.987 37.256ZM148.987 32.52C150.032 32.52 150.918 32.136 151.643 31.368C152.39 30.6 152.763 29.5013 152.763 28.072C152.763 26.6427 152.4 25.544 151.675 24.776C150.971 24.008 150.096 23.624 149.051 23.624C147.984 23.624 147.099 24.008 146.395 24.776C145.691 25.5227 145.339 26.6213 145.339 28.072C145.339 29.5013 145.68 30.6 146.363 31.368C147.067 32.136 147.942 32.52 148.987 32.52ZM186.674 14.536V37H181.202V23.528L176.178 37H171.762L166.706 23.496V37H161.234V14.536H167.698L174.002 30.088L180.242 14.536H186.674ZM207.441 27.784C207.441 28.296 207.409 28.8293 207.345 29.384H194.961C195.046 30.4933 195.398 31.3467 196.017 31.944C196.657 32.52 197.436 32.808 198.353 32.808C199.718 32.808 200.668 32.232 201.201 31.08H207.025C206.726 32.2533 206.182 33.3093 205.393 34.248C204.625 35.1867 203.654 35.9227 202.481 36.456C201.308 36.9893 199.996 37.256 198.545 37.256C196.796 37.256 195.238 36.8827 193.873 36.136C192.508 35.3893 191.441 34.3227 190.673 32.936C189.905 31.5493 189.521 29.928 189.521 28.072C189.521 26.216 189.894 24.5947 190.641 23.208C191.409 21.8213 192.476 20.7547 193.841 20.008C195.206 19.2613 196.774 18.888 198.545 18.888C200.273 18.888 201.809 19.2507 203.153 19.976C204.497 20.7013 205.542 21.736 206.289 23.08C207.057 24.424 207.441 25.992 207.441 27.784ZM201.841 26.344C201.841 25.4053 201.521 24.6587 200.881 24.104C200.241 23.5493 199.441 23.272 198.481 23.272C197.564 23.272 196.785 23.5387 196.145 24.072C195.526 24.6053 195.142 25.3627 194.993 26.344H201.841ZM233.112 18.952C235.33 18.952 237.09 19.624 238.392 20.968C239.714 22.312 240.376 24.1787 240.376 26.568V37H234.936V27.304C234.936 26.152 234.626 25.2667 234.008 24.648C233.41 24.008 232.578 23.688 231.512 23.688C230.445 23.688 229.602 24.008 228.984 24.648C228.386 25.2667 228.088 26.152 228.088 27.304V37H222.648V27.304C222.648 26.152 222.338 25.2667 221.72 24.648C221.122 24.008 220.29 23.688 219.224 23.688C218.157 23.688 217.314 24.008 216.696 24.648C216.098 25.2667 215.8 26.152 215.8 27.304V37H210.328V19.144H215.8V21.384C216.354 20.6373 217.08 20.0507 217.976 19.624C218.872 19.176 219.885 18.952 221.016 18.952C222.36 18.952 223.554 19.24 224.6 19.816C225.666 20.392 226.498 21.2133 227.096 22.28C227.714 21.2987 228.557 20.4987 229.624 19.88C230.69 19.2613 231.853 18.952 233.112 18.952ZM252.331 37.256C250.581 37.256 249.003 36.8827 247.595 36.136C246.208 35.3893 245.109 34.3227 244.299 32.936C243.509 31.5493 243.115 29.928 243.115 28.072C243.115 26.2373 243.52 24.6267 244.331 23.24C245.141 21.832 246.251 20.7547 247.659 20.008C249.067 19.2613 250.645 18.888 252.395 18.888C254.144 18.888 255.723 19.2613 257.131 20.008C258.539 20.7547 259.648 21.832 260.459 23.24C261.269 24.6267 261.675 26.2373 261.675 28.072C261.675 29.9067 261.259 31.528 260.427 32.936C259.616 34.3227 258.496 35.3893 257.067 36.136C255.659 36.8827 254.08 37.256 252.331 37.256ZM252.331 32.52C253.376 32.52 254.261 32.136 254.987 31.368C255.733 30.6 256.107 29.5013 256.107 28.072C256.107 26.6427 255.744 25.544 255.019 24.776C254.315 24.008 253.44 23.624 252.395 23.624C251.328 23.624 250.443 24.008 249.739 24.776C249.035 25.5227 248.683 26.6213 248.683 28.072C248.683 29.5013 249.024 30.6 249.707 31.368C250.411 32.136 251.285 32.52 252.331 32.52ZM270.05 22.12C270.69 21.1387 271.49 20.3707 272.45 19.816C273.41 19.24 274.476 18.952 275.65 18.952V24.744H274.146C272.78 24.744 271.756 25.0427 271.074 25.64C270.391 26.216 270.05 27.24 270.05 28.712V37H264.578V19.144H270.05V22.12ZM296.505 19.144L285.305 45.48H279.417L283.513 36.392L276.249 19.144H282.361L286.489 30.312L290.585 19.144H296.505Z" fill="#183153"/>
</svg>
